<svg width="27" height="27" viewBox="0 0 27 27" fill="none" xmlns="http://www.w3.org/2000/svg">
<path d="M11.4292 0.283569H25.7896C26.0888 0.283569 26.3879 0.383294 26.5874 0.582743C26.737 0.73233 26.8866 1.08137 26.8866 1.38054V15.7409C26.8866 16.3392 26.338 16.8877 25.7397 16.8877C25.1414 16.8877 24.6427 16.389 24.5929 15.7409L24.6427 4.12296L2.65349 26.1122C2.20472 26.5609 1.45679 26.5112 1.05789 26.1122C0.658994 25.7133 0.609132 24.9654 1.05789 24.5167L23.0471 2.52738L11.4292 2.57723C10.8309 2.57723 10.2824 2.02875 10.2824 1.43041C10.2824 0.832054 10.8309 0.283569 11.4292 0.283569Z" fill="#D9D7CF"/>
</svg>
