<svg width="25" height="22" viewBox="0 0 25 22" fill="none" xmlns="http://www.w3.org/2000/svg">
<path d="M21.7908 0.588684C23.2291 0.588684 24.4209 1.78044 24.4209 3.21878V18.9994C24.4209 20.4788 23.2291 21.6295 21.7908 21.6295H11.2704C9.79096 21.6295 8.6403 20.4788 8.6403 18.9994V3.21878C8.6403 1.78044 9.79096 0.588684 11.2704 0.588684H21.7908ZM4.69515 3.54755C4.69515 3.01331 5.10611 2.56126 5.68144 2.56126C6.21567 2.56126 6.66773 3.01331 6.66773 3.54755V18.6706C6.66773 19.2459 6.21567 19.6569 5.68144 19.6569C5.10611 19.6569 4.69515 19.2459 4.69515 18.6706V3.54755ZM0.75 5.52012C0.75 4.98589 1.16095 4.53383 1.73629 4.53383C2.27052 4.53383 2.72258 4.98589 2.72258 5.52012V16.6981C2.72258 17.2734 2.27052 17.6843 1.73629 17.6843C1.16095 17.6843 0.75 17.2734 0.75 16.6981V5.52012Z" fill="white"/>
</svg>
