<svg width="29" height="22" viewBox="0 0 29 22" fill="none" xmlns="http://www.w3.org/2000/svg">
<path d="M14.7149 16.5316C13.7696 16.5316 12.8243 16.2537 12.0459 15.642L0.479919 6.63387V19.2007C0.479919 20.7021 1.64763 21.8698 3.14898 21.8698H26.2809C27.7266 21.8698 28.9499 20.7021 28.9499 19.2007V6.63387L17.3283 15.642C16.5499 16.2537 15.6046 16.5316 14.7149 16.5316ZM1.36961 5.07692L13.158 14.2518C14.0477 14.9191 15.3266 14.9191 16.2163 14.2518L28.0046 5.07692C28.5607 4.63208 28.9499 3.9092 28.9499 3.18634C28.9499 1.74059 27.7266 0.517273 26.2809 0.517273H3.14898C1.64763 0.517273 0.479919 1.74059 0.479919 3.18634C0.479919 3.9092 0.813552 4.63208 1.36961 5.07692Z" fill="white"/>
</svg>
