<svg width="17" height="22" viewBox="0 0 17 22" fill="none" xmlns="http://www.w3.org/2000/svg">
<path d="M13.9033 0.594238H3.38863C1.90999 0.594238 0.759949 1.78535 0.759949 3.22291V18.995C0.759949 20.4736 1.90999 21.6236 3.38863 21.6236H13.9033C15.3409 21.6236 16.532 20.4736 16.532 18.995V3.22291C16.532 1.78535 15.3409 0.594238 13.9033 0.594238ZM9.30315 15.052H4.04579C3.67614 15.052 3.38863 14.7644 3.38863 14.3948C3.38863 14.0663 3.67614 13.7376 4.04579 13.7376H9.30315C9.63173 13.7376 9.96032 14.0663 9.96032 14.3948C9.96032 14.7644 9.63173 15.052 9.30315 15.052ZM13.2462 11.1089H4.04579C3.67614 11.1089 3.38863 10.8214 3.38863 10.4518C3.38863 10.1232 3.67614 9.79461 4.04579 9.79461H13.2462C13.5747 9.79461 13.9033 10.1232 13.9033 10.4518C13.9033 10.8214 13.5747 11.1089 13.2462 11.1089ZM13.2462 7.16593H4.04579C3.67614 7.16593 3.38863 6.87842 3.38863 6.50876C3.38863 6.18018 3.67614 5.85159 4.04579 5.85159H13.2462C13.5747 5.85159 13.9033 6.18018 13.9033 6.50876C13.9033 6.87842 13.5747 7.16593 13.2462 7.16593Z" fill="white"/>
</svg>
