<svg width="150" height="30" viewBox="0 0 150 30" fill="none" xmlns="http://www.w3.org/2000/svg">
<g clip-path="url(#clip0_8_545)">
<path d="M20.7248 24.4331C20.8847 24.4126 21.0331 24.3921 21.1674 24.3726L19.84 29.3972C19.686 29.4082 19.485 29.4214 19.2455 29.4347C18.6551 29.4673 17.8325 29.5 16.9047 29.5C11.2032 29.5 7.10132 28.0426 4.43436 25.8281C1.77382 23.619 0.5 20.6239 0.5 17.4449C0.5 13.0291 2.40958 9.512 5.48323 7.08719C8.56709 4.65433 12.8426 3.30835 17.5637 3.30835C20.5873 3.30835 24.0143 3.94949 26.0481 4.50791L24.2322 11.2621H18.1626V8.62333V8.12333H17.6626C15.1787 8.12333 12.9337 8.95445 11.3057 10.4897C9.67378 12.0287 8.69376 14.2455 8.69376 16.9493C8.69376 21.4492 12.7455 24.6189 18.0909 24.6189C19.0431 24.6189 20.0054 24.5254 20.7248 24.4331Z" fill="black" stroke="black"/>
<path d="M35.4899 29.9999C29.5255 29.9999 24.7144 27.2907 24.7144 21.1783C24.7144 15.3964 29.888 11.0352 35.8853 11.0352C41.8827 11.0352 46.6608 13.7444 46.6608 19.8567C46.6608 25.6717 41.4873 29.9999 35.4899 29.9999ZM36.2149 16.3215C34.4684 16.3215 32.3924 18.5352 32.3924 21.6409C32.3924 23.6893 33.6446 24.6805 35.1933 24.6805C36.9398 24.6805 39.0158 22.4669 39.0158 19.3611C39.0158 17.3127 37.7636 16.3215 36.2149 16.3215Z" fill="black"/>
<path d="M67.7505 24.4493H69.1674L68.047 29.4383H59.71L61.9508 19.2951C60.1714 20.3194 59.1828 21.1454 57.9636 22.7313C56.1512 24.9449 54.8331 29.4383 54.8331 29.4383H47.3199L52.3946 10.7048L59.5123 12.522L58.7544 15.2973C59.1499 14.7026 60.468 13.5793 61.852 12.7863C63.1701 12.0264 64.9825 11.2665 65.8722 11.1343L70.4196 12.2577L67.7175 24.4493H67.7505Z" fill="black"/>
<path d="M81.6564 29.4382H75.1977L72.4956 12.8193L80.1076 10.8039L81.4916 19.3611L87.7856 10.6387L92.6955 14.0418L81.6235 29.4052L81.6564 29.4382Z" fill="black"/>
<path d="M99.5496 24.4494H100.868L99.5167 29.4384H90.5865L95.6612 10.7049L102.779 12.6212L99.5826 24.4825L99.5496 24.4494ZM101 9.41638C98.3963 9.41638 96.2544 7.36792 96.2544 4.69171C96.2544 2.0155 98.3963 -0.032959 101 -0.032959C103.603 -0.032959 105.712 2.08158 105.712 4.69171C105.712 7.30184 103.603 9.41638 101 9.41638Z" fill="black"/>
<path d="M114.708 29.9999C108.743 29.9999 103.932 27.2907 103.932 21.1783C103.932 15.3964 109.106 11.0352 115.103 11.0352C121.101 11.0352 125.879 13.7444 125.879 19.8567C125.879 25.6717 120.705 29.9999 114.708 29.9999ZM115.433 16.3215C113.686 16.3215 111.61 18.5352 111.61 21.6409C111.61 23.6893 112.863 24.6805 114.411 24.6805C116.158 24.6805 118.234 22.4669 118.234 19.3611C118.234 17.3127 116.982 16.3215 115.433 16.3215Z" fill="black"/>
<path d="M138.829 29.9999C132.865 29.9999 128.054 27.2907 128.054 21.1783C128.054 15.3964 133.227 11.0352 139.225 11.0352C145.222 11.0352 150 13.7444 150 19.8567C150 25.6717 144.826 29.9999 138.829 29.9999ZM139.554 16.3215C137.808 16.3215 135.732 18.5352 135.732 21.6409C135.732 23.6893 136.984 24.6805 138.533 24.6805C140.279 24.6805 142.355 22.4669 142.355 19.3611C142.355 17.3127 141.103 16.3215 139.554 16.3215Z" fill="black"/>
</g>
<defs>
<clipPath id="clip0_8_545">
<rect width="150" height="30" fill="white"/>
</clipPath>
</defs>
</svg>
