<svg width="22" height="22" viewBox="0 0 22 22" fill="none" xmlns="http://www.w3.org/2000/svg">
<path d="M19.0884 0.628479H3.30582C1.8262 0.628479 0.675385 1.77929 0.675385 3.21781V15.0136C0.675385 16.4522 1.8262 17.603 3.30582 17.603H7.25147V21.0554C7.25147 21.4664 7.70358 21.672 8.03238 21.4254L13.1699 17.603H19.0884C20.5269 17.603 21.7188 16.4111 21.7188 15.0136V3.21781C21.7188 1.77929 20.568 0.628479 19.0884 0.628479ZM13.8687 5.19064C14.5674 5.19064 15.1427 5.80715 15.1427 6.50586C15.1427 7.24567 14.5263 7.82107 13.8275 7.82107C13.0878 7.82107 12.5534 7.24567 12.5534 6.50586C12.5534 5.80715 13.1289 5.19064 13.8687 5.19064ZM8.60779 5.19064C9.3065 5.19064 9.88188 5.80715 9.88188 6.50586C9.88188 7.24567 9.3065 7.82107 8.60779 7.82107C7.86798 7.82107 7.29257 7.24567 7.29257 6.50586C7.29257 5.80715 7.86798 5.19064 8.60779 5.19064ZM15.5949 11.7667C14.4851 13.0408 12.9233 13.7807 11.2382 13.7807C9.51199 13.7807 7.95018 13.0408 6.84046 11.7667C6.51166 11.3557 6.55276 10.7392 6.96377 10.3693C7.37478 10.0405 7.99128 10.0816 8.36119 10.4926C9.0599 11.3146 10.0874 11.7667 11.2382 11.7667C12.348 11.7667 13.3755 11.3146 14.0741 10.4926C14.4441 10.0816 15.0606 9.99936 15.4716 10.3693C15.8826 10.7392 15.9237 11.3557 15.5949 11.7667Z" fill="white"/>
</svg>
