<svg width="28" height="22" viewBox="0 0 28 22" fill="none" xmlns="http://www.w3.org/2000/svg">
<path d="M13.9409 15.712C13.9409 18.1777 15.1327 20.3559 16.982 21.6299H3.42016C1.94068 21.6299 0.789978 20.4792 0.789978 18.9997V9.79407C0.789978 8.35568 1.94068 7.16389 3.42016 7.16389H19.2012C20.1465 7.16389 21.0095 7.69814 21.4616 8.52007C21.3793 8.52007 21.256 8.47898 21.1739 8.47898C17.1464 8.47898 13.9409 11.7256 13.9409 15.712ZM18.8724 3.87616C19.4067 3.87616 19.8588 4.32823 19.8588 4.86248C19.8588 5.43783 19.4067 5.8488 18.8724 5.8488H3.74893C3.17358 5.8488 2.76261 5.43783 2.76261 4.86248C2.76261 4.32823 3.17358 3.87616 3.74893 3.87616H18.8724ZM16.8999 0.58844C17.434 0.58844 17.8861 1.04051 17.8861 1.57476C17.8861 2.15011 17.434 2.56107 16.8999 2.56107H5.72156C5.14621 2.56107 4.73525 2.15011 4.73525 1.57476C4.73525 1.04051 5.14621 0.58844 5.72156 0.58844H16.8999ZM15.256 15.712C15.256 12.4654 17.8861 9.79407 21.1739 9.79407C24.4205 9.79407 27.0918 12.4654 27.0918 15.712C27.0918 18.9997 24.4205 21.6299 21.1739 21.6299C17.8861 21.6299 15.256 18.9997 15.256 15.712ZM21.8314 13.0818C21.8314 12.7531 21.5026 12.4242 21.1739 12.4242C20.804 12.4242 20.5163 12.7531 20.5163 13.0818V15.0544H18.5437C18.1738 15.0544 17.8861 15.3832 17.8861 15.712C17.8861 16.0818 18.1738 16.3695 18.5437 16.3695H20.5163V18.3421C20.5163 18.712 20.804 18.9997 21.1739 18.9997C21.5026 18.9997 21.8314 18.712 21.8314 18.3421V16.3695H23.804C24.1328 16.3695 24.4616 16.0818 24.4616 15.712C24.4616 15.3832 24.1328 15.0544 23.804 15.0544H21.8314V13.0818Z" fill="white"/>
</svg>
