<svg width="25" height="22" viewBox="0 0 25 22" fill="none" xmlns="http://www.w3.org/2000/svg">
<path d="M0.669983 3.03571C0.669983 1.3821 1.99287 0.0119629 3.69373 0.0119629H21.8362C23.4898 0.0119629 24.86 1.3821 24.86 3.03571V18.1545C24.86 19.8554 23.4898 21.1782 21.8362 21.1782H3.69373C1.99287 21.1782 0.669983 19.8554 0.669983 18.1545V3.03571ZM5.20561 6.05946C6.00879 6.05946 6.71748 5.39802 6.71748 4.54759C6.71748 3.7444 6.00879 3.03571 5.20561 3.03571C4.35518 3.03571 3.69373 3.7444 3.69373 4.54759C3.69373 5.39802 4.35518 6.05946 5.20561 6.05946ZM21.8362 4.54759C21.8362 3.93339 21.3165 3.41368 20.7024 3.41368H9.36326C8.70182 3.41368 8.22936 3.93339 8.22936 4.54759C8.22936 5.20903 8.70182 5.68149 9.36326 5.68149H20.7024C21.3165 5.68149 21.8362 5.20903 21.8362 4.54759Z" fill="white"/>
</svg>
